<svg width="24" height="22" viewBox="0 0 24 22" fill="none" xmlns="http://www.w3.org/2000/svg">
<path d="M20.6542 21.5773H2.5514C1.64019 21.5773 0.78972 21.0825 0.364486 20.2783C-0.121495 19.4742 -0.121495 18.4845 0.364486 17.6804L9.35514 1.72164C9.84112 0.917514 10.6308 0.422668 11.5421 0.422668C12.4533 0.422668 13.3645 0.855658 13.7897 1.72164L22.8411 17.6804C23.3271 18.4845 23.3271 19.4742 22.8411 20.2783C22.4159 21.0825 21.5654 21.5773 20.6542 21.5773ZM11.6028 1.3505C10.9953 1.3505 10.4486 1.65978 10.2056 2.21648L1.09346 18.1134C0.789719 18.6082 0.789719 19.2886 1.09346 19.7835C1.3972 20.3402 1.94393 20.6495 2.5514 20.6495H20.6542C21.2617 20.6495 21.8084 20.3402 22.0514 19.7835C22.3551 19.2886 22.3551 18.6082 22.0514 18.1134L13 2.15463C12.6963 1.65978 12.2103 1.3505 11.6028 1.3505Z" fill="white"/>
<path d="M11.6028 5.68042H10.813C10.0841 5.68042 9.47658 6.36083 9.59808 7.1031L10.3878 12.9794C10.4485 13.5979 10.9953 14.0928 11.6028 14.0928C12.2102 14.0928 12.757 13.6598 12.8177 12.9794L13.6074 7.1031C13.7289 6.36083 13.1214 5.68042 12.3925 5.68042H11.6028Z" fill="white"/>
<path d="M11.6636 15.3917C12.5141 15.3917 13.1823 16.0721 13.1823 16.9381C13.1823 17.8041 12.5141 18.4845 11.6636 18.4845C10.8131 18.4845 10.1449 17.8041 10.1449 16.9381C10.2056 16.0721 10.8739 15.3917 11.6636 15.3917Z" fill="white"/>
</svg>
