<svg id="Слой_1" data-name="Слой 1" xmlns="http://www.w3.org/2000/svg" xmlns:xlink="http://www.w3.org/1999/xlink" width="38" height="38" viewBox="0 0 38 38"><defs><style>.cls-1{fill:url(#Безымянный_градиент);}.cls-2{fill:#fff;fill-rule:evenodd;}</style><linearGradient id="Безымянный_градиент" x1="29.98" y1="38.47" x2="8.98" y2="4.97" gradientTransform="matrix(1, 0, 0, -1, 0, 40)" gradientUnits="userSpaceOnUse"><stop offset="0" stop-color="#8c48a9"/><stop offset="0.49" stop-color="#c43484"/><stop offset="1" stop-color="#ff7000"/></linearGradient></defs><title>Ellipse 8</title><circle class="cls-1" cx="19.03" cy="19" r="19"/><path class="cls-2" d="M14.93,10.26h8.2A5.06,5.06,0,0,1,28,15.44v8.65a5.05,5.05,0,0,1-4.9,5.17h-8.2A5.06,5.06,0,0,1,10,24.09V15.44A5.06,5.06,0,0,1,14.93,10.26Zm0,2h8.2a3.16,3.16,0,0,1,3.06,3.23v8.65a3.16,3.16,0,0,1-3.06,3.23h-8.2a3.16,3.16,0,0,1-3.06-3.23V15.44A3.16,3.16,0,0,1,14.93,12.21ZM19,24.7a4.81,4.81,0,0,1-4.68-4.94A4.81,4.81,0,0,1,19,14.83a4.8,4.8,0,0,1,4.67,4.93A4.82,4.82,0,0,1,19,24.7Zm0-7.93a3,3,0,1,1-2.84,3A2.91,2.91,0,0,1,19,16.77Zm5-1.18a1.08,1.08,0,1,1,1-1.08A1,1,0,0,1,24,15.59Z"/></svg>