<svg width="26" height="24" viewBox="0 0 26 24" fill="none" xmlns="http://www.w3.org/2000/svg">
<g clip-path="url(#clip0)">
<path d="M3.9486 24C2.5514 24 1.2757 23.2577 0.546729 22.0206C-0.182243 20.7835 -0.182243 19.299 0.546729 18L9.59813 1.97938C10.3271 0.742268 11.5421 0 13 0C14.4579 0 15.6729 0.742268 16.4019 1.97938L25.4533 17.9381C26.1822 19.1753 26.1822 20.6598 25.4533 21.9588C24.7243 23.2577 23.4486 23.9381 22.0514 23.9381H3.9486V24Z" fill="#FFE411"/>
<path d="M22.0514 22.5773H3.94862C3.0374 22.5773 2.18694 22.0825 1.7617 21.2783C1.27572 20.4742 1.27572 19.4845 1.7617 18.6804L10.7524 2.72164C11.2383 1.91751 12.0281 1.42267 12.9393 1.42267C13.8505 1.42267 14.7617 1.85566 15.1869 2.72164L24.2383 18.6804C24.7243 19.4845 24.7243 20.4742 24.2383 21.2783C23.8131 22.0825 22.9626 22.5773 22.0514 22.5773ZM13 2.3505C12.3925 2.3505 11.8458 2.65978 11.6028 3.21648L2.49067 19.1134C2.18694 19.6082 2.18694 20.2886 2.49067 20.7835C2.79441 21.3402 3.34114 21.6495 3.94862 21.6495H22.0514C22.6589 21.6495 23.2056 21.3402 23.4486 20.7835C23.7524 20.2886 23.7524 19.6082 23.4486 19.1134L14.3972 3.15463C14.0935 2.65978 13.6075 2.3505 13 2.3505Z" fill="black"/>
<path d="M13 6.68042H12.2102C11.4813 6.68042 10.8738 7.36083 10.9953 8.1031L11.785 13.9794C11.8458 14.5979 12.3925 15.0928 13 15.0928C13.6074 15.0928 14.1542 14.6598 14.2149 13.9794L15.0046 8.1031C15.1261 7.36083 14.5187 6.68042 13.7897 6.68042H13Z" fill="black"/>
<path d="M13.0607 16.3917C13.9112 16.3917 14.5794 17.0721 14.5794 17.9381C14.5794 18.8041 13.9112 19.4845 13.0607 19.4845C12.2102 19.4845 11.542 18.8041 11.542 17.9381C11.6027 17.0721 12.271 16.3917 13.0607 16.3917Z" fill="black"/>
</g>
<defs>
<clipPath id="clip0">
<rect width="26" height="24" fill="white"/>
</clipPath>
</defs>
</svg>
