<svg width="48" height="39" viewBox="0 0 48 39" fill="none" xmlns="http://www.w3.org/2000/svg">
<path fill-rule="evenodd" clip-rule="evenodd" d="M5.83686 5.65124H10.8367L13.9732 1.80133C14.7364 0.86374 16.1283 0.0899048 17.0744 0.0899048C21.9106 0.0899048 26.0926 0.0899048 30.9385 0.0899048C31.8749 0.0899048 33.2668 0.86374 34.0397 1.80133L37.1666 5.65124H42.1664C45.3221 5.65124 47.9102 8.24568 47.9102 11.4117V33.1561C47.9102 36.3221 45.3189 38.9069 42.1664 38.9069H5.83686C2.68111 38.9069 0.0930206 36.3221 0.0930206 33.1561V11.4149C0.0898135 8.24568 2.68111 5.65124 5.83686 5.65124ZM23.9984 29.9644C19.7619 29.9644 16.3271 26.5255 16.3271 22.2839C16.3271 18.0422 19.7619 14.6033 23.9984 14.6033C28.2349 14.6033 31.6697 18.0422 31.6697 22.2839C31.6697 26.5255 28.2349 29.9644 23.9984 29.9644ZM23.9984 33.8689C17.6068 33.8689 12.4242 28.6801 12.4242 22.2807C12.4242 15.8813 17.6068 10.702 23.9984 10.702C30.3901 10.702 35.5727 15.8813 35.5727 22.2807C35.5727 28.6801 30.3901 33.8689 23.9984 33.8689Z" fill="#D9D9D9"/>
</svg>
