<svg width="27" height="27" viewBox="0 0 27 27" fill="none" xmlns="http://www.w3.org/2000/svg">
<path d="M9.12867 16.5986L3.65153 7.27714C3.13724 6.42857 3.43296 5.31 4.29439 4.79572C5.15581 4.29429 6.27439 4.57715 6.77581 5.43857L12.253 14.76" class="stroke-svg" stroke-miterlimit="10"/>
<path d="M12.2528 14.7729L5.55426 3.36858C5.05283 2.50715 5.33569 1.38858 6.19712 0.887148C7.05855 0.385719 8.17712 0.668576 8.67855 1.53L15.3771 12.9214" class="stroke-svg" stroke-miterlimit="10"/>
<path d="M15.3772 12.9343L10.0029 3.78001C9.50152 2.91859 9.78437 1.80001 10.6458 1.29859C11.5072 0.797157 12.6258 1.08001 13.1272 1.94144L18.1544 10.4914L18.2701 8.06144C18.3344 7.07144 19.2087 6.30001 20.1987 6.37716C21.1629 6.62144 21.7929 7.31573 21.8829 8.30573L22.9244 18.81C22.8858 22.05 21.6001 24.1586 19.4401 25.2772C15.4544 27.3986 12.1501 26.2157 9.2058 23.3357C8.55009 22.6672 7.95866 21.7157 7.35437 20.7772L2.59723 12.6772C2.0958 11.8157 2.37866 10.6972 3.24009 10.1957C4.10152 9.6943 5.22009 9.97716 5.72152 10.8386L9.2058 16.7657" class="stroke-svg" stroke-miterlimit="10"/>
<path d="M5.16846 21.4972C4.38418 21.4457 3.63846 21.0214 3.20132 20.2886C2.77704 19.5557 2.76418 18.6943 3.09846 17.9743" class="stroke-svg" stroke-miterlimit="10"/>
<path d="M4.55146 23.6572C3.22718 23.4257 2.01861 22.6543 1.28575 21.4072C0.552892 20.16 0.462892 18.72 0.912892 17.46" class="stroke-svg" stroke-miterlimit="10"/>
<path d="M23.9015 8.4343C24.2357 7.7143 24.2229 6.85287 23.7857 6.12001C23.3615 5.38715 22.6029 4.96287 21.8186 4.91144" class="stroke-svg" stroke-miterlimit="10"/>
<path d="M26.0871 8.93573C26.5371 7.67573 26.4342 6.23573 25.7142 4.98859C24.9813 3.74144 23.7728 2.97001 22.4485 2.73859" class="stroke-svg" stroke-miterlimit="10"/>
</svg>
