<svg width="42" height="42" viewBox="0 0 42 42" fill="none" xmlns="http://www.w3.org/2000/svg">
<g clip-path="url(#clip0)">
<path d="M7.69995 18.1C10.9 14.7 15.5 12.6 20.6 12.6C25.7 12.6 30.3 14.7 33.5 18.1" stroke="#F05E25" stroke-width="1.2" stroke-miterlimit="10" stroke-linecap="round"/>
<path d="M14.3 28.6C15.8 26.6 18 25.4 20.6 25.4C23.1 25.4 25.4 26.6 26.9 28.6" stroke="#F05E25" stroke-width="1.2" stroke-miterlimit="10" stroke-linecap="round"/>
<path d="M12.1 25C14.3 22.6 17.3 21.2 20.6 21.2C23.9 21.2 27 22.7 29.1 25" stroke="#F05E25" stroke-width="1.2" stroke-miterlimit="10" stroke-linecap="round"/>
<path d="M9.90002 21.6C12.7 18.6 16.4 16.8 20.6 16.8C24.8 16.8 28.5 18.6 31.3 21.6" stroke="#F05E25" stroke-width="1.2" stroke-miterlimit="10" stroke-linecap="round"/>
<path d="M30.3 38.1C27.4 39.7 24.1 40.6 20.6 40.6C9.59998 40.6 0.599976 31.6 0.599976 20.6C0.599976 9.60001 9.59998 0.600006 20.6 0.600006C31.6 0.600006 40.6 9.60001 40.6 20.6C40.6 24.1 39.7 27.4 38.1 30.3" stroke="#F05E25" stroke-width="1.2" stroke-miterlimit="10"/>
<path d="M34.9 40.6C38 40.6 40.5999 38.1 40.5999 34.9C40.5999 31.8 38.1 29.2 34.9 29.2C31.7 29.2 29.2 31.7 29.2 34.9C29.3 38.1 31.8 40.6 34.9 40.6Z" stroke="#F05E25" stroke-width="1.2" stroke-miterlimit="10"/>
<path d="M36.9 32.9L32.9 36.9" stroke="#F05E25" stroke-width="1.2" stroke-miterlimit="10"/>
<path d="M32.9 32.9L36.9 36.9" stroke="#F05E25" stroke-width="1.2" stroke-miterlimit="10"/>
</g>
<defs>
<clipPath id="clip0">
<rect width="41.2" height="41.2" fill="white"/>
</clipPath>
</defs>
</svg>
