<svg width="53" height="30" viewBox="0 0 53 30" fill="none" xmlns="http://www.w3.org/2000/svg">
<g clip-path="url(#clip0)">
<path fill-rule="evenodd" clip-rule="evenodd" d="M19.0811 20C24.6302 20 29.1533 15.5113 29.1533 10.0044C29.1533 4.48871 24.6302 0 19.0811 0C13.5231 0 9 4.48871 9 10.0044C9 15.5113 13.5231 20 19.0811 20Z" fill="#EB001B"/>
<path fill-rule="evenodd" clip-rule="evenodd" d="M31.928 20C37.4771 20 42.0002 15.5113 42.0002 10.0044C42.0002 4.48871 37.4771 0 31.928 0C26.379 0 21.8469 4.48871 21.8469 10.0044C21.8469 15.5113 26.37 20 31.928 20Z" fill="#F79E1B"/>
<path fill-rule="evenodd" clip-rule="evenodd" d="M25.5047 2.29297C27.735 4.12564 29.1535 6.89678 29.1535 10.0043C29.1535 13.1031 27.735 15.8742 25.5047 17.7069C23.2743 15.8742 21.8469 13.1031 21.8469 10.0043C21.8469 6.89678 23.2654 4.12564 25.5047 2.29297Z" fill="#FF5F00"/>
</g>
<path d="M6.06 21.87C6.62 21.87 7.07333 22.0533 7.42 22.42C7.76667 22.78 7.94 23.27 7.94 23.89V27H7.07V23.92C7.07 23.5333 6.97 23.2333 6.77 23.02C6.57 22.8067 6.30333 22.7 5.97 22.7C5.59667 22.7 5.29667 22.8267 5.07 23.08C4.85 23.3267 4.74 23.7067 4.74 24.22V27H3.87V23.92C3.87 23.5333 3.77333 23.2333 3.58 23.02C3.39333 22.8067 3.13667 22.7 2.81 22.7C2.44333 22.7 2.13667 22.8267 1.89 23.08C1.65 23.3333 1.53 23.7133 1.53 24.22V27H0.66V22H1.53V22.67C1.87 22.1367 2.36667 21.87 3.02 21.87C3.69333 21.87 4.18333 22.1533 4.49 22.72C4.83667 22.1533 5.36 21.87 6.06 21.87ZM13.2863 22H14.1563V27H13.2863V26.14C12.853 26.8 12.223 27.13 11.3963 27.13C10.6963 27.13 10.0997 26.8767 9.60633 26.37C9.11299 25.8567 8.86633 25.2333 8.86633 24.5C8.86633 23.7667 9.11299 23.1467 9.60633 22.64C10.0997 22.1267 10.6963 21.87 11.3963 21.87C12.223 21.87 12.853 22.2 13.2863 22.86V22ZM11.5063 26.29C12.013 26.29 12.4363 26.12 12.7763 25.78C13.1163 25.4333 13.2863 25.0067 13.2863 24.5C13.2863 23.9933 13.1163 23.57 12.7763 23.23C12.4363 22.8833 12.013 22.71 11.5063 22.71C11.0063 22.71 10.5863 22.8833 10.2463 23.23C9.90633 23.57 9.73633 23.9933 9.73633 24.5C9.73633 25.0067 9.90633 25.4333 10.2463 25.78C10.5863 26.12 11.0063 26.29 11.5063 26.29ZM16.2147 23.35C16.2147 23.5433 16.3114 23.7 16.5047 23.82C16.698 23.9333 16.9314 24.0267 17.2047 24.1C17.478 24.1667 17.7514 24.2467 18.0247 24.34C18.298 24.4267 18.5314 24.58 18.7247 24.8C18.918 25.0133 19.0147 25.29 19.0147 25.63C19.0147 26.0833 18.838 26.4467 18.4847 26.72C18.138 26.9933 17.6914 27.13 17.1447 27.13C16.658 27.13 16.2414 27.0233 15.8947 26.81C15.548 26.5967 15.3014 26.3133 15.1547 25.96L15.9047 25.53C15.9847 25.77 16.1347 25.96 16.3547 26.1C16.5747 26.24 16.838 26.31 17.1447 26.31C17.4314 26.31 17.668 26.2567 17.8547 26.15C18.0414 26.0367 18.1347 25.8633 18.1347 25.63C18.1347 25.4367 18.038 25.2833 17.8447 25.17C17.6514 25.05 17.418 24.9567 17.1447 24.89C16.8714 24.8167 16.598 24.7333 16.3247 24.64C16.0514 24.5467 15.818 24.3933 15.6247 24.18C15.4314 23.9667 15.3347 23.6933 15.3347 23.36C15.3347 22.9267 15.5014 22.57 15.8347 22.29C16.1747 22.01 16.598 21.87 17.1047 21.87C17.5114 21.87 17.8714 21.9633 18.1847 22.15C18.5047 22.33 18.7447 22.5833 18.9047 22.91L18.1747 23.32C17.9947 22.8933 17.638 22.68 17.1047 22.68C16.858 22.68 16.648 22.74 16.4747 22.86C16.3014 22.9733 16.2147 23.1367 16.2147 23.35ZM22.5695 22.84H21.2395V25.55C21.2395 25.7967 21.2861 25.9733 21.3795 26.08C21.4795 26.18 21.6295 26.2333 21.8295 26.24C22.0295 26.24 22.2761 26.2333 22.5695 26.22V27C21.8095 27.1 21.2528 27.04 20.8995 26.82C20.5461 26.5933 20.3695 26.17 20.3695 25.55V22.84H19.3795V22H20.3695V20.86L21.2395 20.6V22H22.5695V22.84ZM23.9555 24.9C24.0422 25.3467 24.2455 25.6933 24.5655 25.94C24.8922 26.1867 25.2922 26.31 25.7655 26.31C26.4255 26.31 26.9055 26.0667 27.2055 25.58L27.9455 26C27.4589 26.7533 26.7255 27.13 25.7455 27.13C24.9522 27.13 24.3055 26.8833 23.8055 26.39C23.3122 25.89 23.0655 25.26 23.0655 24.5C23.0655 23.7467 23.3089 23.12 23.7955 22.62C24.2822 22.12 24.9122 21.87 25.6855 21.87C26.4189 21.87 27.0155 22.13 27.4755 22.65C27.9422 23.1633 28.1755 23.7833 28.1755 24.51C28.1755 24.6367 28.1655 24.7667 28.1455 24.9H23.9555ZM25.6855 22.69C25.2189 22.69 24.8322 22.8233 24.5255 23.09C24.2189 23.35 24.0289 23.7 23.9555 24.14H27.2955C27.2222 23.6667 27.0355 23.3067 26.7355 23.06C26.4355 22.8133 26.0855 22.69 25.6855 22.69ZM30.0456 22.84C30.3323 22.22 30.8523 21.91 31.6056 21.91V22.82C31.179 22.8 30.8123 22.9133 30.5056 23.16C30.199 23.4067 30.0456 23.8033 30.0456 24.35V27H29.1756V22H30.0456V22.84ZM34.5334 27.13C33.7801 27.13 33.1534 26.88 32.6534 26.38C32.1534 25.8733 31.9034 25.2467 31.9034 24.5C31.9034 23.7533 32.1534 23.13 32.6534 22.63C33.1534 22.1233 33.7801 21.87 34.5334 21.87C35.0268 21.87 35.4701 21.99 35.8634 22.23C36.2568 22.4633 36.5501 22.78 36.7434 23.18L36.0134 23.6C35.8868 23.3333 35.6901 23.12 35.4234 22.96C35.1634 22.8 34.8668 22.72 34.5334 22.72C34.0334 22.72 33.6134 22.89 33.2734 23.23C32.9401 23.57 32.7734 23.9933 32.7734 24.5C32.7734 25 32.9401 25.42 33.2734 25.76C33.6134 26.1 34.0334 26.27 34.5334 26.27C34.8668 26.27 35.1668 26.1933 35.4334 26.04C35.7001 25.88 35.9034 25.6667 36.0434 25.4L36.7834 25.83C36.5701 26.2233 36.2634 26.54 35.8634 26.78C35.4634 27.0133 35.0201 27.13 34.5334 27.13ZM41.7141 22H42.5841V27H41.7141V26.14C41.2807 26.8 40.6507 27.13 39.8241 27.13C39.1241 27.13 38.5274 26.8767 38.0341 26.37C37.5407 25.8567 37.2941 25.2333 37.2941 24.5C37.2941 23.7667 37.5407 23.1467 38.0341 22.64C38.5274 22.1267 39.1241 21.87 39.8241 21.87C40.6507 21.87 41.2807 22.2 41.7141 22.86V22ZM39.9341 26.29C40.4407 26.29 40.8641 26.12 41.2041 25.78C41.5441 25.4333 41.7141 25.0067 41.7141 24.5C41.7141 23.9933 41.5441 23.57 41.2041 23.23C40.8641 22.8833 40.4407 22.71 39.9341 22.71C39.4341 22.71 39.0141 22.8833 38.6741 23.23C38.3341 23.57 38.1641 23.9933 38.1641 24.5C38.1641 25.0067 38.3341 25.4333 38.6741 25.78C39.0141 26.12 39.4341 26.29 39.9341 26.29ZM44.7722 22.84C45.0589 22.22 45.5789 21.91 46.3322 21.91V22.82C45.9055 22.8 45.5389 22.9133 45.2322 23.16C44.9255 23.4067 44.7722 23.8033 44.7722 24.35V27H43.9022V22H44.7722V22.84ZM51.05 20H51.92V27H51.05V26.14C50.6167 26.8 49.9867 27.13 49.16 27.13C48.46 27.13 47.8633 26.8767 47.37 26.37C46.8767 25.8567 46.63 25.2333 46.63 24.5C46.63 23.7667 46.8767 23.1467 47.37 22.64C47.8633 22.1267 48.46 21.87 49.16 21.87C49.9867 21.87 50.6167 22.2 51.05 22.86V20ZM49.27 26.29C49.7767 26.29 50.2 26.12 50.54 25.78C50.88 25.4333 51.05 25.0067 51.05 24.5C51.05 23.9933 50.88 23.57 50.54 23.23C50.2 22.8833 49.7767 22.71 49.27 22.71C48.77 22.71 48.35 22.8833 48.01 23.23C47.67 23.57 47.5 23.9933 47.5 24.5C47.5 25.0067 47.67 25.4333 48.01 25.78C48.35 26.12 48.77 26.29 49.27 26.29Z" fill="white"/>
<defs>
<clipPath id="clip0">
<rect width="33" height="20" fill="white" transform="translate(9)"/>
</clipPath>
</defs>
</svg>
