<svg width="100" height="100" viewBox="0 0 100 100" fill="none" xmlns="http://www.w3.org/2000/svg">
<path d="M18.2529 43.9667C26.0289 35.7047 37.2069 30.6017 49.5999 30.6017C61.9929 30.6017 73.1709 35.7047 80.9469 43.9667" stroke="#36C233" stroke-width="2" stroke-miterlimit="10" stroke-linecap="round"/>
<path d="M34.291 69.4817C37.936 64.6217 43.282 61.7057 49.6 61.7057C55.918 61.7057 61.264 64.6217 64.909 69.4817" stroke="#36C233" stroke-width="2" stroke-miterlimit="10" stroke-linecap="round"/>
<path d="M28.9453 60.7338C34.2913 54.9018 41.5813 51.4998 49.6003 51.4998C57.6193 51.4998 65.1523 55.1448 70.2553 60.7338" stroke="#36C233" stroke-width="2" stroke-miterlimit="10" stroke-linecap="round"/>
<path d="M23.5991 52.4717C30.4031 45.1817 39.3941 40.8077 49.6001 40.8077C59.8061 40.8077 68.7971 45.1817 75.6011 52.4717" stroke="#36C233" stroke-width="2" stroke-miterlimit="10" stroke-linecap="round"/>
<path d="M73.171 92.5667C66.124 96.4547 58.105 98.6417 49.6 98.6417C22.87 98.6417 1 76.7717 1 50.0417C1 23.3117 22.87 1.44171 49.6 1.44171C76.33 1.44171 98.2 23.3117 98.2 50.0417C98.2 58.5467 96.013 66.5657 92.125 73.6127" stroke="#36C233" stroke-width="2" stroke-miterlimit="10"/>
<path d="M84.349 98.6417C91.882 98.6417 98.2 92.5668 98.2 84.7908C98.2 77.2578 92.125 70.9398 84.349 70.9398C76.816 70.9398 70.498 77.0148 70.498 84.7908C70.741 92.5668 76.816 98.6417 84.349 98.6417Z" stroke="#36C233" stroke-width="2" stroke-miterlimit="10"/>
<path d="M78.2739 86.4917L81.9189 89.8937L90.4239 79.6877" stroke="#36C233" stroke-width="2" stroke-miterlimit="10"/>
</svg>
