<svg width="72" height="42" viewBox="0 0 72 42" fill="none" xmlns="http://www.w3.org/2000/svg">
<path d="M48.4792 26.4594L48.3728 26.8886C48.1599 27.7203 47.3348 28.2032 46.5098 27.9886L27.9599 23.1059C27.1348 22.8913 26.6558 22.0597 26.8687 21.228L29.5833 10.792C29.7962 9.96039 30.6479 9.47749 31.4463 9.69211L49.9962 14.5747C50.8213 14.7894 51.3003 15.6478 51.0874 16.4527L49.8632 21.1475" stroke="#36C233" stroke-width="1.3" stroke-miterlimit="10"/>
<path d="M50.9277 16.9625C52.7109 16.6674 54.4674 16.6942 56.1973 16.8015C58.6458 16.9893 59.9765 18.4917 60.9612 20.4232C63.9686 26.2717 67.2421 31.825 70.8616 36.9491" stroke="#36C233" stroke-width="1.3" stroke-miterlimit="10"/>
<path d="M55.053 23.2133C50.848 21.55 46.6164 19.8867 42.4114 18.2234C40.229 17.5795 39.2709 20.0745 40.7081 21.0135C44.4074 23.6426 48.1067 26.2449 51.8327 28.874C55.4788 31.4763 53.7223 36.2784 61.254 39.2026" stroke="#36C233" stroke-width="1.3" stroke-miterlimit="10"/>
<path d="M55.4521 34.5345C51.7793 34.9638 49.6502 31.4494 47.5211 27.8813" stroke="#36C233" stroke-width="1.3" stroke-miterlimit="10"/>
<path d="M48.4527 29.4105C45.8446 30.9397 48.1333 33.6493 50.1826 35.3394C52.3383 37.1369 53.8287 37.2442 56.4901 36.0101" stroke="#36C233" stroke-width="1.3" stroke-miterlimit="10"/>
<path d="M17.1547 29.6787C17.8732 28.4178 19.3104 27.5593 20.9338 27.5593C22.5307 27.5593 23.888 28.3373 24.6332 29.5177" stroke="#36C233" stroke-width="1.3" stroke-miterlimit="10"/>
<path d="M14.6796 24.6352C16.3562 23.3206 18.5386 22.5426 20.9338 22.5426C23.2759 22.5426 25.405 23.2938 27.0817 24.5547" stroke="#36C233" stroke-width="1.3" stroke-miterlimit="10"/>
<path d="M12.2843 19.6989C14.7594 18.1429 17.7402 17.2576 20.9338 17.2576C23.3025 17.2576 25.538 17.7405 27.5341 18.599" stroke="#36C233" stroke-width="1.3" stroke-miterlimit="10"/>
<path d="M10.0487 15.1382C13.2158 13.3407 16.9417 12.3213 20.9338 12.3213C23.7283 12.3213 26.363 12.831 28.7849 13.7432" stroke="#36C233" stroke-width="1.3" stroke-miterlimit="10"/>
<path d="M39.9628 26.2716C37.674 34.7492 29.956 41 20.8274 41C9.86244 41 1 32.0396 1 21.0134C1 9.98726 9.86244 1 20.8274 1C28.3591 1 34.9328 5.23877 38.2595 11.4896" stroke="#36C233" stroke-width="1.3" stroke-miterlimit="10"/>
</svg>
